<svg xmlns="http://www.w3.org/2000/svg"  viewBox="0 0 100 100" width="400px" height="400px"><path fill="#c9dcf4" d="M78.345,38.553c-1.782-0.196-3.563-0.365-5.345-0.505V23.045c0-3.503-2.586-6.493-6.06-6.942	c-13.711-1.775-33.291-1.803-45.853-0.087C17.605,16.492,15,19.448,15,22.962v54.231c0,3.953,2.898,7.335,6.812,7.884	c18.438,2.586,37.053,2.532,55.833,0.027c0.318,0.002,0.642-0.029,0.968-0.095C82.33,84.255,85,80.988,85,77.196V46.04	C85,42.219,82.142,38.972,78.345,38.553z"/><circle cx="31.5" cy="31.5" r="5.5" fill="#fff"/><circle cx="31.5" cy="31.5" r="2.417" fill="#4a254b"/><path fill="#4a254b" d="M44,42.029c2.584,0,4.712-1.948,4.997-4.456C49.031,37.271,48.811,37,48.506,37c-1.733,0-7.275,0-9.011,0 c-0.305,0-0.527,0.271-0.492,0.574C39.288,40.081,41.417,42.029,44,42.029z"/><circle cx="56.5" cy="31.5" r="5.5" fill="#fff"/><circle cx="56.5" cy="31.5" r="2.417" fill="#4a254b"/><path fill="#4a254b" d="M78.174,85.07c0,0-0.001,0-0.001,0c-2.845-0.008-5.159-2.331-5.159-5.179v-43.29c0-0.276,0.224-0.5,0.5-0.5 s0.5,0.224,0.5,0.5v43.29c0,2.298,1.867,4.173,4.162,4.179c0.276,0.001,0.5,0.226,0.499,0.501 C78.673,84.848,78.45,85.07,78.174,85.07z"/><path fill="#6b96d6" d="M46.283,76.84c-0.273,0-0.496-0.22-0.5-0.493C45.779,76.07,46,75.844,46.276,75.84 c7.559-0.103,14.682-0.561,20.6-1.326c0.272-0.038,0.524,0.158,0.56,0.432c0.035,0.274-0.158,0.525-0.432,0.561 c-5.955,0.77-13.118,1.231-20.714,1.334C46.287,76.84,46.285,76.84,46.283,76.84z"/><path fill="#6b96d6" d="M41.717,76.854c-0.001,0-0.002,0-0.003,0c-7.875-0.051-15.031-0.487-20.695-1.262 c-0.273-0.037-0.465-0.289-0.428-0.562c0.038-0.274,0.29-0.465,0.563-0.428c5.623,0.769,12.734,1.201,20.566,1.252 c0.276,0.002,0.499,0.228,0.497,0.503S41.992,76.854,41.717,76.854z"/><path fill="#6b96d6" d="M46.283,70.09c-0.273,0-0.496-0.22-0.5-0.493C45.779,69.32,46,69.094,46.276,69.09 c7.559-0.103,14.682-0.561,20.6-1.326c0.272-0.039,0.524,0.158,0.56,0.432c0.035,0.274-0.158,0.525-0.432,0.561 c-5.955,0.77-13.118,1.231-20.714,1.334C46.287,70.09,46.285,70.09,46.283,70.09z"/><path fill="#6b96d6" d="M41.717,70.104c-0.001,0-0.002,0-0.003,0c-7.875-0.051-15.031-0.487-20.695-1.262 c-0.273-0.037-0.465-0.289-0.428-0.562c0.038-0.274,0.29-0.464,0.563-0.428c5.623,0.769,12.734,1.201,20.566,1.252 c0.276,0.002,0.499,0.228,0.497,0.503S41.992,70.104,41.717,70.104z"/><path fill="#6b96d6" d="M46.283,63.34c-0.273,0-0.496-0.22-0.5-0.493C45.779,62.57,46,62.344,46.276,62.34 c7.559-0.103,14.682-0.561,20.6-1.326c0.272-0.04,0.524,0.158,0.56,0.432c0.035,0.274-0.158,0.525-0.432,0.561 c-5.955,0.77-13.118,1.231-20.714,1.334C46.287,63.34,46.285,63.34,46.283,63.34z"/><path fill="#6b96d6" d="M41.717,63.354c-0.001,0-0.002,0-0.003,0c-7.875-0.051-15.031-0.487-20.695-1.262 c-0.273-0.037-0.465-0.289-0.428-0.562c0.038-0.273,0.29-0.463,0.563-0.428c5.623,0.769,12.734,1.201,20.566,1.252 c0.276,0.002,0.499,0.228,0.497,0.503S41.992,63.354,41.717,63.354z"/><g><path fill="#6b96d6" d="M46.283,56.59c-0.273,0-0.496-0.22-0.5-0.493C45.779,55.82,46,55.594,46.276,55.59 c7.559-0.103,14.682-0.561,20.6-1.326c0.272-0.042,0.524,0.158,0.56,0.432c0.035,0.274-0.158,0.525-0.432,0.561 c-5.955,0.77-13.118,1.231-20.714,1.334C46.287,56.59,46.285,56.59,46.283,56.59z"/></g><g><path fill="#6b96d6" d="M41.717,56.604c-0.001,0-0.002,0-0.003,0c-7.875-0.051-15.031-0.487-20.695-1.262 c-0.273-0.037-0.465-0.289-0.428-0.562c0.038-0.273,0.29-0.462,0.563-0.428c5.623,0.769,12.734,1.201,20.566,1.252 c0.276,0.002,0.499,0.228,0.497,0.503S41.992,56.604,41.717,56.604z"/></g><g><path fill="#6b96d6" d="M46.283,49.84c-0.273,0-0.496-0.22-0.5-0.493C45.779,49.07,46,48.844,46.276,48.84 c7.559-0.103,14.682-0.561,20.6-1.326c0.272-0.037,0.524,0.158,0.56,0.432c0.035,0.274-0.158,0.525-0.432,0.561 c-5.955,0.77-13.118,1.231-20.714,1.334C46.287,49.84,46.285,49.84,46.283,49.84z"/></g><g><path fill="#6b96d6" d="M41.717,49.854c-0.001,0-0.002,0-0.003,0c-7.875-0.051-15.031-0.487-20.695-1.262 c-0.273-0.037-0.465-0.289-0.428-0.562c0.038-0.274,0.29-0.461,0.563-0.428c5.623,0.769,12.734,1.201,20.566,1.252 c0.276,0.002,0.499,0.228,0.497,0.503S41.992,49.854,41.717,49.854z"/></g></svg>